HIERARCHY
ROOT HipCenter
{
    OFFSET 0.0 0.0 -0.0
    CHANNELS 6 Xposition Yposition Zposition Zrotation Xrotation Yrotation
    JOINT Spine
    {
        OFFSET 0.0 11.291601181030273 0.0
        CHANNELS 3 Zrotation Xrotation Yrotation
        JOINT ShoulderCenter
        {
            OFFSET 0.0 31.740219116210938 0.0
            CHANNELS 3 Zrotation Xrotation Yrotation
            JOINT LeftShoulder
            {
                OFFSET 12.334678649902344 0.0 0.0
                CHANNELS 3 Zrotation Xrotation Yrotation
                JOINT LeftElbow
                {
                    OFFSET 28.573638916015625 0.0 0.0
                    CHANNELS 3 Zrotation Xrotation Yrotation
                    JOINT LeftWrist
                    {
                        OFFSET 27.68528938293457 0.0 0.0
                        CHANNELS 3 Zrotation Xrotation Yrotation
                        JOINT LeftHand
                        {
                            OFFSET 3.642221450805664 0.0 0.0
                            CHANNELS 3 Zrotation Xrotation Yrotation
                            End Site
                            {
                                OFFSET 1.4568884372711182 0.0 0.0
                            }
                        }
                    }
                }
            }
            JOINT RightShoulder
            {
                OFFSET -12.334678649902344 0.0 0.0
                CHANNELS 3 Zrotation Xrotation Yrotation
                JOINT RightElbow
                {
                    OFFSET -28.573638916015625 0.0 0.0
                    CHANNELS 3 Zrotation Xrotation Yrotation
                    JOINT RightWrist
                    {
                        OFFSET -27.68528938293457 0.0 0.0
                        CHANNELS 3 Zrotation Xrotation Yrotation
                        JOINT RightHand
                        {
                            OFFSET -3.642221450805664 0.0 0.0
                            CHANNELS 3 Zrotation Xrotation Yrotation
                            End Site
                            {
                                OFFSET -1.4568884372711182 0.0 0.0
                            }
                        }
                    }
                }
            }
            End Site
            {
                OFFSET 0.0 12.696088790893555 0.0
            }
        }
    }
    JOINT LeftHip
    {
        OFFSET 12.996477127075195 0.0 0.0
        CHANNELS 3 Zrotation Xrotation Yrotation
        JOINT LeftKnee
        {
            OFFSET 0.0 -34.82246017456055 0.0
            CHANNELS 3 Zrotation Xrotation Yrotation
            JOINT LeftAnkle
            {
                OFFSET 0.0 -38.897281646728516 0.0
                CHANNELS 3 Zrotation Xrotation Yrotation
                JOINT LeftFoot
                {
                    OFFSET 0.0 -10.547685623168945 0.0
                    CHANNELS 3 Zrotation Xrotation Yrotation
                    End Site
                    {
                        OFFSET 0.0 0.0 4.219074249267578
                    }
                }
            }
        }
    }
    JOINT RightHip
    {
        OFFSET -12.996477127075195 0.0 0.0
        CHANNELS 3 Zrotation Xrotation Yrotation
        JOINT RightKnee
        {
            OFFSET 0.0 -34.82246017456055 0.0
            CHANNELS 3 Zrotation Xrotation Yrotation
            JOINT RightAnkle
            {
                OFFSET 0.0 -38.897281646728516 0.0
                CHANNELS 3 Zrotation Xrotation Yrotation
                JOINT RightFoot
                {
                    OFFSET 0.0 -10.547685623168945 0.0
                    CHANNELS 3 Zrotation Xrotation Yrotation
                    End Site
                    {
                        OFFSET 0.0 0.0 4.219074249267578
                    }
                }
            }
        }
    }
}
MOTION
Frames: 4
Frame Time: 0.03333333333333333
87.5999984741211 7.500000476837158 1.7999999523162842 6.115488006342325 -7.585246139371722 -83.01637627249998 10.092022467798012 25.516265676622425 -6.312581843471367 -5.93355143194672e-07 1.1180265613354388e-06 6.018986773952325 105.64110286290511 12.087758321633178 167.41285827996646 2.7577968200849023e-06 7.297222188738938e-07 53.906606252981135 -4.453478017161464e-05 -84.99780473166142 22.79049096195897 9.54166404439055e-15 -3.1805546814635168e-15 -3.1805546814635164e-15 -97.16622800361154 9.958865981301674 176.45237469979648 8.951648813834979e-07 -1.6329639551866474e-06 -52.98069302564677 -3.9264742294919666e-05 -85.2481895998334 -20.663639963964624 -6.3611093629270335e-15 0.0 0.0 -34.39149066175772 -67.79352739079988 -3.764971349129258 107.96411780601318 70.1173796622749 -137.9933915995293 92.3393954644764 -57.51236322084446 108.71154997171895 0.0 0.0 0.0 -1.6872837518793824 -10.72476204428752 29.295751724094846 7.710614053673665 18.509340612501763 11.097400560346022 -86.10922428813707 -30.774647842184834 -133.63552111266748 -1.5902773407317584e-15 -3.1805546814635168e-15 -3.1805546814635168e-15
88.4000015258789 7.500000476837158 1.7000000476837158 4.085632200952999 -6.100079015148986 -83.20572054791825 10.295270233252891 25.878791936496786 -6.15140608543084 -3.0359573853428266e-06 -2.737000590963544e-07 5.0594313125384955 104.11173593077257 13.114575426935149 166.45717071363566 1.4934303070929078e-06 -2.4275867407425426e-06 50.52605053595711 5.430845648174007e-05 -85.92507544621994 20.306052865886777 1.5902773407317588e-15 3.1805546814635176e-15 -4.4139062980501586e-32 -97.10456550544198 8.633704852803254 177.93625203884966 -1.129460916987663e-06 -9.234187259504557e-07 -52.30755618359198 1.446356464843675e-06 -86.25206166173639 -21.06360313293161 -6.361109362927032e-15 -8.827812596100317e-32 1.590277340731758e-15 -24.7405954034772 -62.327382509530736 2.3399834256614476 133.01645630871297 64.54904234879082 -166.00523288712628 90.05151211096323 -52.07625478631211 98.36597893272713 -6.3611093629270335e-15 -1.7655625192200634e-31 3.1805546814635168e-15 -0.012460432315434922 -9.227545935291818 29.270771597306727 7.585253062477336 17.882071639837562 10.566411504260845 -84.34761465107925 -31.17175946208376 -130.64691212922236 -1.590277340731758e-15 4.4139062980501586e-32 -3.180554681463516e-15
88.80000305175781 7.100000381469727 1.7000000476837158 2.027330860064215 -4.550930245728672 -82.66614923179581 10.719753385048325 25.126121371812264 -5.538702051902787 -2.7531375981646265e-07 1.6968835916229766e-07 2.998315635361961 101.99836427611316 13.307344401893824 166.15119395399162 4.743067290616781e-06 -7.338887114470492e-07 47.268476908469715 5.150792820433312e-07 -81.14635619818469 16.653603961256955 1.5902773407317588e-15 0.0 0.0 -98.23232572730954 7.6129452961338 -178.89595086442372 1.9814344950654935e-06 2.6852435044897117e-06 -52.448607069327025 4.614636089368033e-07 -84.9569884493614 -19.72816495349592 6.361109362927032e-15 0.0 0.0 -16.6221666361145 -48.88023150868521 0.017332874429926044 135.7952220401396 70.82489143662917 -171.69097979959295 86.76190881042795 -52.96874267582058 89.54758810727662 -6.361109362927033e-15 3.531125038440127e-31 -6.361109362927033e-15 2.0530246616118926 -8.626203176383477 28.57713113721269 8.142407231309072 20.139524198948916 11.410625771909238 -84.74612617694658 -30.637970301043715 -129.9172001313257 9.54166404439055e-15 0.0 0.0
89.0 6.199999809265137 2.0 -4.210175129211792e-08 -4.049581058329002 -81.73648639005724 9.665223337997897 24.625530861154523 -4.646670923621803 1.2677967872037765e-06 -1.4581881001193634e-06 1.217579074866361 100.07162327539753 11.594678108918663 165.70109321090376 4.547427844337833e-06 -3.1645912643644836e-06 45.80787021299545 -6.048346501851434e-06 -82.51084680250499 15.050773527691303 3.1805546814635168e-15 3.1805546814635168e-15 -6.3611093629270335e-15 -99.61765495047014 7.240356045189855 -175.61721988508006 4.361479023016754e-06 2.266031118472181e-06 -52.32967989644801 -6.590979506767151e-07 -85.47694473244138 -20.12377680768626 0.0 0.0 1.5902773407317588e-15 -14.219894576864549 -34.299479166239166 -7.059868754143985 61.19922361559851 81.11058696880366 -96.73130356765324 91.3391303553477 -55.43259000532131 102.2876118309165 -3.1805546814635168e-15 -3.1805546814635168e-15 -4.770832022195275e-15 3.0679113430228337 -10.14956520151704 25.142471260392032 9.115984180968491 26.864063586379558 15.103016275953014 -89.08739978172356 -29.973293430475035 -134.700575205875 -1.5902773407317582e-15 4.4139062980501586e-32 -3.1805546814635164e-15
